<svg xmlns="http://www.w3.org/2000/svg" version="1.1" xmlns:xlink="http://www.w3.org/1999/xlink" xmlns:svgjs="http://svgjs.com/svgjs" width="512.000000pt" height="512.000000pt"><svg version="1.0" xmlns="http://www.w3.org/2000/svg" width="512.000000pt" height="512.000000pt" viewBox="0 0 512.000000 512.000000" preserveAspectRatio="xMidYMid meet">

<g transform="translate(0.000000,512.000000) scale(0.100000,-0.100000)" fill="#000000" stroke="none">
<path d="M1345 4183 c-46 -24 -66 -45 -86 -88 -33 -71 -20 -150 32 -203 18
-18 30 -34 28 -35 -2 -2 -28 -14 -57 -27 -63 -29 -145 -111 -174 -176 l-20
-47 28 -23 c170 -138 438 -150 622 -28 29 19 56 42 59 50 9 23 -30 97 -77 148
-22 24 -66 57 -98 72 -31 16 -59 30 -61 32 -3 1 7 15 21 30 39 41 50 69 50
127 1 107 -76 185 -183 185 -30 -1 -67 -8 -84 -17z"></path>
<path d="M2693 3153 c-26 -5 -63 -48 -63 -73 0 -10 9 -29 21 -44 l20 -26 759
0 759 0 20 26 c36 46 23 94 -30 113 -22 8 -248 11 -748 10 -394 -1 -726 -4
-738 -6z"></path>
<path d="M2655 2655 c-14 -13 -25 -31 -25 -39 0 -29 23 -65 49 -76 18 -7 251
-10 769 -8 l744 3 19 24 c25 30 24 62 -2 95 l-20 26 -755 0 -755 0 -24 -25z"></path>
<path d="M2674 2198 c-22 -10 -44 -47 -44 -74 0 -8 11 -26 25 -39 l24 -25 391
0 c377 0 391 1 410 20 30 30 27 83 -6 109 -26 20 -37 21 -403 20 -237 0 -384
-4 -397 -11z"></path>
<path d="M2651 1704 c-27 -35 -26 -57 3 -91 l24 -28 724 -3 c397 -2 738 0 756
3 67 12 91 68 51 119 l-20 26 -759 0 -759 0 -20 -26z"></path>
<path d="M2659 1241 c-17 -13 -23 -29 -23 -56 0 -27 6 -43 23 -56 22 -18 55
-19 773 -19 l749 0 24 25 c32 31 32 69 0 100 l-24 25 -749 0 c-718 0 -751 -1
-773 -19z"></path>
<path d="M2655 745 c-28 -27 -30 -42 -13 -80 19 -43 55 -46 449 -43 344 3 368
4 388 22 14 13 21 31 21 57 0 70 6 69 -433 69 l-388 0 -24 -25z"></path>
</g>
</svg><style>@media (prefers-color-scheme: light) { :root { filter: none; } }
</style></svg>